<?xml version="1.0" encoding="UTF-8"?>
<!DOCTYPE svg PUBLIC "-//W3C//DTD SVG 1.1//EN" "http://www.w3.org/Graphics/SVG/1.1/DTD/svg11.dtd">
<svg xmlns="http://www.w3.org/2000/svg" version="1.1" width="612px" height="612px" style="shape-rendering:geometricPrecision; text-rendering:geometricPrecision; image-rendering:optimizeQuality; fill-rule:evenodd; clip-rule:evenodd" xmlns:xlink="http://www.w3.org/1999/xlink">
<g><path style="opacity:1" fill="#fefefe" d="M -0.5,-0.5 C 203.5,-0.5 407.5,-0.5 611.5,-0.5C 611.5,203.5 611.5,407.5 611.5,611.5C 407.5,611.5 203.5,611.5 -0.5,611.5C -0.5,407.5 -0.5,203.5 -0.5,-0.5 Z"/></g>
<g><path style="opacity:1" fill="#152143" d="M 304.5,61.5 C 311.243,66.7373 317.577,72.5706 323.5,79C 318.418,85.6684 314.251,92.8351 311,100.5C 308.005,117.176 315.005,125.842 332,126.5C 342.422,126.409 347.922,121.242 348.5,111C 347.797,105.858 346.464,100.858 344.5,96C 348.722,91.9677 353.555,88.801 359,86.5C 363.01,90.6608 366.177,95.4942 368.5,101C 365.346,105.488 361.512,109.321 357,112.5C 350.977,126.276 354.811,136.109 368.5,142C 378.045,144.606 385.211,141.773 390,133.5C 391.339,128.264 391.839,122.93 391.5,117.5C 396.167,117.5 400.833,117.5 405.5,117.5C 396.771,135.412 386.937,152.745 376,169.5C 333.304,147.661 289.804,145.828 245.5,164C 241.905,165.713 238.405,167.547 235,169.5C 224.596,152.906 214.763,135.906 205.5,118.5C 210.12,117.507 214.786,117.173 219.5,117.5C 218.315,125.419 219.981,132.586 224.5,139C 235.675,144.963 245.509,143.13 254,133.5C 257.282,126.473 257.282,119.473 254,112.5C 249.488,109.321 245.654,105.488 242.5,101C 244.823,95.4942 247.99,90.6608 252,86.5C 257.112,89.2852 261.945,92.4519 266.5,96C 264.54,101.251 262.873,106.584 261.5,112C 262.852,122.108 268.685,126.941 279,126.5C 295.799,125.268 302.799,116.268 300,99.5C 295.972,92.616 291.805,85.7826 287.5,79C 293.37,73.2981 299.036,67.4647 304.5,61.5 Z"/></g>
<g><path style="opacity:1" fill="#f5f6f7" d="M 304.5,122.5 C 308.725,126.857 313.725,130.357 319.5,133C 326.755,134.225 334.089,134.892 341.5,135C 338.5,138 335.5,141 332.5,144C 307.071,140.475 282.071,142.475 257.5,150C 250.9,152.301 244.566,155.135 238.5,158.5C 236.684,156.882 235.351,154.882 234.5,152.5C 243.864,151.4 252.031,147.733 259,141.5C 261.06,138.714 262.56,135.714 263.5,132.5C 276.471,137.12 288.805,135.62 300.5,128C 302.464,126.549 303.797,124.716 304.5,122.5 Z"/></g>
<g><path style="opacity:1" fill="#cccfda" d="M 253.5,96.5 C 258.158,97.5221 258.825,99.8554 255.5,103.5C 251.474,101.844 250.807,99.5102 253.5,96.5 Z"/></g>
<g><path style="opacity:1" fill="#b1bac6" d="M 353.5,97.5 C 354.5,97.5 355.5,97.5 356.5,97.5C 355.5,104.167 354.5,104.167 353.5,97.5 Z"/></g>
<g><path style="opacity:1" fill="#f2f4f6" d="M 304.5,71.5 C 305.654,77.987 305.821,84.6536 305,91.5C 302.376,87.752 299.876,83.9187 297.5,80C 300.075,77.2683 302.409,74.435 304.5,71.5 Z"/></g>
<g><path style="opacity:1" fill="#162143" d="M 187.5,153.5 C 196.495,152.663 200.661,156.663 200,165.5C 197.081,171.025 192.581,172.858 186.5,171C 182.872,167.208 181.706,162.708 183,157.5C 184.397,155.93 185.897,154.596 187.5,153.5 Z"/></g>
<g><path style="opacity:1" fill="#dee0e7" d="M 189.5,157.5 C 191.665,157.116 193.332,157.783 194.5,159.5C 192.192,161.471 189.858,163.471 187.5,165.5C 186.369,163.926 186.202,162.259 187,160.5C 188.045,159.627 188.878,158.627 189.5,157.5 Z"/></g>
<g><path style="opacity:1" fill="#172241" d="M 415.5,153.5 C 420.447,152.628 424.613,153.961 428,157.5C 429.609,167.553 425.443,172.053 415.5,171C 408.874,165.139 408.874,159.305 415.5,153.5 Z"/></g>
<g><path style="opacity:1" fill="#e4e6ee" d="M 417.5,157.5 C 423.292,157.757 425.125,160.423 423,165.5C 421.292,163.457 419.292,161.79 417,160.5C 416.53,159.423 416.697,158.423 417.5,157.5 Z"/></g>
<g><path style="opacity:1" fill="#fafbfb" d="M 318.5,175.5 C 317.319,177.669 318.153,179.002 321,179.5C 321.5,179.333 322,179.167 322.5,179C 320.937,178.241 319.937,177.074 319.5,175.5C 321.5,175.5 323.5,175.5 325.5,175.5C 337.364,176.844 348.364,180.677 358.5,187C 359.251,190.766 361.251,193.766 364.5,196C 368.007,198.254 371.673,200.254 375.5,202C 378.157,204.959 380.824,207.959 383.5,211C 390.262,213.089 394.095,217.589 395,224.5C 397.333,227.833 399.667,231.167 402,234.5C 403.138,238.859 401.805,242.192 398,244.5C 397.517,248.532 398.35,252.199 400.5,255.5C 404.717,261.158 406.717,267.492 406.5,274.5C 406.733,279.034 405.9,283.368 404,287.5C 400.947,290.887 398.28,294.553 396,298.5C 397.827,309.329 394.327,317.829 385.5,324C 373.855,326.458 367.688,333.625 367,345.5C 364.369,349.079 360.869,351.579 356.5,353C 353.28,355.468 350.28,358.135 347.5,361C 343.833,361.333 340.167,361.667 336.5,362C 332.203,364.304 328.536,367.304 325.5,371C 321.018,369.863 316.351,369.53 311.5,370C 308.268,371.23 305.601,373.23 303.5,376C 301.5,376.667 299.5,376.667 297.5,376C 291.992,372.274 286.992,372.774 282.5,377.5C 278.671,376.931 275.337,377.598 272.5,379.5C 269.141,381.487 265.475,381.987 261.5,381C 256.882,378.05 252.548,374.716 248.5,371C 243.588,368.374 239.588,369.374 236.5,374C 235.167,374.667 233.833,374.667 232.5,374C 225.833,368.667 219.833,362.667 214.5,356C 212.285,354.956 209.952,354.29 207.5,354C 204.268,350.938 201.268,347.771 198.5,344.5C 195.79,337.414 192.29,330.747 188,324.5C 187.433,321.832 186.933,319.166 186.5,316.5C 186.81,315.262 187.31,315.262 188,316.5C 188.667,317.833 189.333,319.167 190,320.5C 189.914,317.298 188.914,314.298 187,311.5C 186.768,312.737 186.268,313.737 185.5,314.5C 184.667,306.512 184.501,298.512 185,290.5C 185.799,294.424 186.299,294.424 186.5,290.5C 184.249,284.172 184.249,277.838 186.5,271.5C 187.847,272.171 189.014,272.171 190,271.5C 190.279,267.83 190.112,264.163 189.5,260.5C 204.427,213.902 235.76,185.568 283.5,175.5C 287.742,175.151 291.742,175.817 295.5,177.5C 298.113,178.435 300.779,178.602 303.5,178C 301.482,177.495 299.482,176.995 297.5,176.5C 300.598,175.179 304.098,174.512 308,174.5C 311.683,174.501 315.183,174.835 318.5,175.5 Z"/></g>
<g><path style="opacity:1" fill="#182344" d="M 160.5,183.5 C 163.898,183.18 167.232,183.513 170.5,184.5C 173.859,199.632 168.025,208.965 153,212.5C 150.543,211.655 148.876,209.988 148,207.5C 146.157,196.181 150.323,188.181 160.5,183.5 Z"/></g>
<g><path style="opacity:1" fill="#142042" d="M 441.5,183.5 C 454.026,183.373 461.359,189.373 463.5,201.5C 463.305,205.083 462.305,208.417 460.5,211.5C 450.342,211.86 443.508,207.194 440,197.5C 438.966,192.543 439.466,187.876 441.5,183.5 Z"/></g>
<g><path style="opacity:1" fill="#e7eaee" d="M 163.5,188.5 C 165.028,188.517 165.528,189.184 165,190.5C 160.839,195.486 157.173,200.819 154,206.5C 151.69,197.447 154.857,191.447 163.5,188.5 Z"/></g>
<g><path style="opacity:1" fill="#ebecf0" d="M 444.5,188.5 C 449.628,193.776 453.462,199.776 456,206.5C 447.915,203.351 444.082,197.351 444.5,188.5 Z"/></g>
<g><path style="opacity:1" fill="#162243" d="M 423.5,245.5 C 422.213,244.232 421.213,244.565 420.5,246.5C 419.402,242.639 418.569,242.639 418,246.5C 416.844,245.007 416.01,245.174 415.5,247C 415.627,251.049 415.294,255.215 414.5,259.5C 413.279,255.593 412.446,251.593 412,247.5C 412.479,250.27 411.979,252.936 410.5,255.5C 410.341,251.326 408.675,247.992 405.5,245.5C 405.44,244.957 405.107,244.624 404.5,244.5C 403.23,248.516 403.23,252.516 404.5,256.5C 404.333,256.833 404.167,257.167 404,257.5C 403.085,256.672 402.419,255.672 402,254.5C 401.617,255.056 401.117,255.389 400.5,255.5C 398.35,252.199 397.517,248.532 398,244.5C 401.805,242.192 403.138,238.859 402,234.5C 399.667,231.167 397.333,227.833 395,224.5C 394.095,217.589 390.262,213.089 383.5,211C 380.824,207.959 378.157,204.959 375.5,202C 371.673,200.254 368.007,198.254 364.5,196C 361.251,193.766 359.251,190.766 358.5,187C 348.364,180.677 337.364,176.844 325.5,175.5C 319.07,173.975 312.404,173.308 305.5,173.5C 297.943,173.357 290.61,174.024 283.5,175.5C 235.76,185.568 204.427,213.902 189.5,260.5C 187.926,263.907 186.926,267.573 186.5,271.5C 184.249,277.838 184.249,284.172 186.5,290.5C 186.299,294.424 185.799,294.424 185,290.5C 184.501,298.512 184.667,306.512 185.5,314.5C 185.328,315.492 185.662,316.158 186.5,316.5C 186.933,319.166 187.433,321.832 188,324.5C 192.29,330.747 195.79,337.414 198.5,344.5C 197.175,343.047 196.342,343.381 196,345.5C 195.185,343.377 194.185,341.377 193,339.5C 192.5,340 192,340.5 191.5,341C 193.533,345.147 193.867,345.981 192.5,343.5C 191.325,343.281 190.325,343.614 189.5,344.5C 190.309,346.071 190.643,347.738 190.5,349.5C 168.749,300.012 174.582,254.012 208,211.5C 249.534,167.887 298.701,156.387 355.5,177C 387.099,191.098 409.766,213.932 423.5,245.5 Z"/></g>
<g><path style="opacity:1" fill="#1e2747" d="M 365.5,204.5 C 367.199,204.34 368.866,204.506 370.5,205C 369.492,209.351 370.825,213.018 374.5,216C 368.555,214.663 365.555,210.83 365.5,204.5 Z"/></g>
<g><path style="opacity:1" fill="#303752" d="M 344.5,192.5 C 345.5,192.5 346.5,192.5 347.5,192.5C 347.318,197.489 349.651,200.655 354.5,202C 348.382,201.773 345.049,198.606 344.5,192.5 Z"/></g>
<g><path style="opacity:1" fill="#8c9aad" d="M 369.5,194.5 C 369.897,193.475 370.563,193.308 371.5,194C 373.651,195.405 375.318,197.239 376.5,199.5C 376.167,199.833 375.833,200.167 375.5,200.5C 373.812,198.146 371.812,196.146 369.5,194.5 Z"/></g>
<g><path style="opacity:1" fill="#42485c" d="M 321.5,183.5 C 322.552,183.351 323.552,183.517 324.5,184C 322.789,185.133 322.289,186.633 323,188.5C 324.771,189.304 326.271,190.471 327.5,192C 322.12,191.464 320.12,188.631 321.5,183.5 Z"/></g>
<g><path style="opacity:1" fill="#292e45" d="M 339.5,180.5 C 340.5,180.5 341.5,180.5 342.5,180.5C 342.297,182.39 342.963,183.89 344.5,185C 341.222,185.353 339.555,183.853 339.5,180.5 Z"/></g>
<g><path style="opacity:1" fill="#606a74" d="M 273.5,180.5 C 275.628,179.371 277.961,179.204 280.5,180C 278.214,181.664 275.881,181.83 273.5,180.5 Z"/></g>
<g><path style="opacity:1" fill="#5a5c71" d="M 318.5,175.5 C 318.833,175.5 319.167,175.5 319.5,175.5C 319.937,177.074 320.937,178.241 322.5,179C 322,179.167 321.5,179.333 321,179.5C 318.153,179.002 317.319,177.669 318.5,175.5 Z"/></g>
<g><path style="opacity:1" fill="#6d707d" d="M 297.5,176.5 C 299.482,176.995 301.482,177.495 303.5,178C 300.779,178.602 298.113,178.435 295.5,177.5C 294.496,175.323 295.162,174.989 297.5,176.5 Z"/></g>
<g><path style="opacity:1" fill="#d4d9e4" d="M 325.5,175.5 C 323.5,175.5 321.5,175.5 319.5,175.5C 319.167,175.5 318.833,175.5 318.5,175.5C 315.183,174.835 311.683,174.501 308,174.5C 304.098,174.512 300.598,175.179 297.5,176.5C 295.162,174.989 294.496,175.323 295.5,177.5C 291.742,175.817 287.742,175.151 283.5,175.5C 290.61,174.024 297.943,173.357 305.5,173.5C 312.404,173.308 319.07,173.975 325.5,175.5 Z"/></g>
<g><path style="opacity:1" fill="#162143" d="M 476.5,205.5 C 481.149,206.651 483.982,209.651 485,214.5C 486.63,227.393 481.13,235.559 468.5,239C 457.46,241.396 449.627,237.563 445,227.5C 443.86,224.472 444.694,222.305 447.5,221C 454.449,219.928 460.783,221.428 466.5,225.5C 467.231,217.371 470.564,210.704 476.5,205.5 Z"/></g>
<g><path style="opacity:1" fill="#31354f" d="M 352.5,208.5 C 353.376,208.369 354.043,208.702 354.5,209.5C 352.911,214.84 354.578,219.007 359.5,222C 354.629,221.13 351.629,218.13 350.5,213C 350.519,211.167 351.185,209.667 352.5,208.5 Z"/></g>
<g><path style="opacity:1" fill="#323850" d="M 333.5,213.5 C 334.239,213.369 334.906,213.536 335.5,214C 331.305,218.924 331.971,223.257 337.5,227C 331.737,226.008 329.57,222.508 331,216.5C 332.045,215.627 332.878,214.627 333.5,213.5 Z"/></g>
<g><path style="opacity:1" fill="#132041" d="M 131.5,205.5 C 133.963,205.781 136.13,206.781 138,208.5C 141.68,213.542 143.68,219.208 144,225.5C 150.538,220.203 157.705,219.203 165.5,222.5C 166.618,226.637 165.618,230.304 162.5,233.5C 149.87,242.517 138.37,241.184 128,229.5C 123.722,220.562 124.888,212.562 131.5,205.5 Z"/></g>
<g><path style="opacity:1" fill="#e0e3e8" d="M 132.5,214.5 C 137.066,218.544 138.399,223.544 136.5,229.5C 131.699,225.407 130.365,220.407 132.5,214.5 Z"/></g>
<g><path style="opacity:1" fill="#454b5d" d="M 375.5,227.5 C 374.923,226.227 374.257,226.227 373.5,227.5C 372.691,229.071 372.357,230.738 372.5,232.5C 370.1,227.054 371.767,224.721 377.5,225.5C 377.145,226.522 376.478,227.189 375.5,227.5 Z"/></g>
<g><path style="opacity:1" fill="#e9ebf1" d="M 452.5,227.5 C 457.154,227.328 461.154,228.828 464.5,232C 460.548,232.912 456.881,232.245 453.5,230C 452.748,229.329 452.414,228.496 452.5,227.5 Z"/></g>
<g><path style="opacity:1" fill="#29314e" d="M 386.5,221.5 C 391.31,221.096 392.31,222.596 389.5,226C 390.198,230.368 392.198,234.035 395.5,237C 391.612,236.472 388.778,234.305 387,230.5C 385.281,227.546 385.115,224.546 386.5,221.5 Z"/></g>
<g><path style="opacity:1" fill="#dbe0e8" d="M 403.5,226.5 C 406.407,228.315 407.741,230.981 407.5,234.5C 404.513,234.578 403.847,233.411 405.5,231C 404.586,229.594 403.92,228.094 403.5,226.5 Z"/></g>
<g><path style="opacity:1" fill="#29334d" d="M 358.5,229.5 C 359.873,229.343 361.207,229.51 362.5,230C 358.172,232.89 357.339,236.723 360,241.5C 361.167,242.667 362.333,243.833 363.5,245C 357.43,243.734 354.597,239.901 355,233.5C 356.376,232.295 357.542,230.962 358.5,229.5 Z"/></g>
<g><path style="opacity:1" fill="#303752" d="M 375.5,227.5 C 374.785,232.9 376.452,237.4 380.5,241C 378.924,241.388 377.591,240.888 376.5,239.5C 374.384,237.6 373.051,235.267 372.5,232.5C 372.357,230.738 372.691,229.071 373.5,227.5C 374.257,226.227 374.923,226.227 375.5,227.5 Z"/></g>
<g><path style="opacity:1" fill="#132042" d="M 490.5,236.5 C 494.956,236.648 497.79,238.981 499,243.5C 501.51,257.668 496.01,266.835 482.5,271C 469.59,273.789 459.757,269.622 453,258.5C 452.502,255.183 452.335,251.85 452.5,248.5C 462.059,247.075 470.225,249.742 477,256.5C 479.753,248.663 484.253,241.996 490.5,236.5 Z"/></g>
<g><path style="opacity:1" fill="#2b354c" d="M 339.5,235.5 C 340.873,235.343 342.207,235.51 343.5,236C 341.714,236.785 340.214,237.951 339,239.5C 338.498,243.241 338.498,246.908 339,250.5C 334.202,245.281 334.368,240.281 339.5,235.5 Z"/></g>
<g><path style="opacity:1" fill="#1e2748" d="M 385.5,247.5 C 387.288,247.215 388.955,247.548 390.5,248.5C 387.804,253.506 388.137,258.339 391.5,263C 387.389,261.875 384.889,259.042 384,254.5C 383.167,251.829 383.667,249.496 385.5,247.5 Z"/></g>
<g><path style="opacity:1" fill="#ebedf2" d="M 405.5,245.5 C 408.675,247.992 410.341,251.326 410.5,255.5C 410.5,256.167 410.5,256.833 410.5,257.5C 409.312,258.684 408.145,258.684 407,257.5C 406.166,253.998 405.333,250.498 404.5,247C 404.57,246.235 404.903,245.735 405.5,245.5 Z"/></g>
<g><path style="opacity:1" fill="#132042" d="M 115.5,236.5 C 120.775,237.247 124.942,239.914 128,244.5C 130,248.5 132,252.5 134,256.5C 140.371,249.571 148.205,247.071 157.5,249C 159.341,261.203 154.008,268.536 141.5,271C 127.162,274.084 117.329,268.917 112,255.5C 110.595,248.63 111.761,242.297 115.5,236.5 Z"/></g>
<g><path style="opacity:1" fill="#f0f2f4" d="M 118.5,244.5 C 124.434,249.371 127.434,255.704 127.5,263.5C 118.967,259.938 115.967,253.604 118.5,244.5 Z"/></g>
<g><path style="opacity:1" fill="#29324f" d="M 349.5,265.5 C 348.833,267.5 348.167,269.5 347.5,271.5C 344.319,266.246 345.319,261.746 350.5,258C 353.379,257.126 356.045,257.46 358.5,259C 353.602,258.764 350.602,260.931 349.5,265.5 Z"/></g>
<g><path style="opacity:1" fill="#1e2847" d="M 370.5,251.5 C 372.288,251.215 373.955,251.548 375.5,252.5C 373.142,254.024 371.309,256.024 370,258.5C 369.413,262.353 369.746,266.02 371,269.5C 364.116,263.436 363.949,257.436 370.5,251.5 Z"/></g>
<g><path style="opacity:1" fill="#2c3552" d="M 405.5,245.5 C 404.903,245.735 404.57,246.235 404.5,247C 405.333,250.498 406.166,253.998 407,257.5C 408.145,258.684 409.312,258.684 410.5,257.5C 409.322,258.999 407.655,259.999 405.5,260.5C 406.443,265.1 406.777,269.767 406.5,274.5C 406.717,267.492 404.717,261.158 400.5,255.5C 401.117,255.389 401.617,255.056 402,254.5C 402.419,255.672 403.085,256.672 404,257.5C 404.167,257.167 404.333,256.833 404.5,256.5C 403.23,252.516 403.23,248.516 404.5,244.5C 405.107,244.624 405.44,244.957 405.5,245.5 Z"/></g>
<g><path style="opacity:1" fill="#e9eced" d="M 458.5,254.5 C 465.624,255.278 471.29,258.611 475.5,264.5C 470.927,265.182 466.593,264.182 462.5,261.5C 460.384,259.6 459.051,257.267 458.5,254.5 Z"/></g>
<g><path style="opacity:1" fill="#4b5064" d="M 195.5,258.5 C 197.144,258.286 198.644,258.62 200,259.5C 200.667,262.167 200.667,264.833 200,267.5C 199.667,265.5 199.333,263.5 199,261.5C 197.271,261.026 196.105,260.026 195.5,258.5 Z"/></g>
<g><path style="opacity:1" fill="#697184" d="M 327.5,265.5 C 330.024,264.2 332.691,264.2 335.5,265.5C 334.311,266.429 332.978,266.762 331.5,266.5C 330.432,265.566 329.099,265.232 327.5,265.5 Z"/></g>
<g><path style="opacity:1" fill="#a1a5b3" d="M 349.5,265.5 C 349.813,268.247 349.48,270.914 348.5,273.5C 347.702,273.043 347.369,272.376 347.5,271.5C 348.167,269.5 348.833,267.5 349.5,265.5 Z"/></g>
<g><path style="opacity:1" fill="#c8ced6" d="M 189.5,260.5 C 190.112,264.163 190.279,267.83 190,271.5C 189.014,272.171 187.847,272.171 186.5,271.5C 186.926,267.573 187.926,263.907 189.5,260.5 Z"/></g>
<g><path style="opacity:1" fill="#262f49" d="M 327.5,265.5 C 329.099,265.232 330.432,265.566 331.5,266.5C 325.948,268.924 323.448,273.257 324,279.5C 321.264,273.767 322.431,269.1 327.5,265.5 Z"/></g>
<g><path style="opacity:1" fill="#121e41" d="M 423.5,245.5 C 441.402,293.974 434.235,338.307 402,378.5C 370.225,412.585 331.058,426.752 284.5,421C 241.145,412.793 209.811,388.96 190.5,349.5C 190.643,347.738 190.309,346.071 189.5,344.5C 190.325,343.614 191.325,343.281 192.5,343.5C 193.867,345.981 193.533,345.147 191.5,341C 192,340.5 192.5,340 193,339.5C 194.185,341.377 195.185,343.377 196,345.5C 196.342,343.381 197.175,343.047 198.5,344.5C 201.268,347.771 204.268,350.938 207.5,354C 209.952,354.29 212.285,354.956 214.5,356C 219.833,362.667 225.833,368.667 232.5,374C 233.833,374.667 235.167,374.667 236.5,374C 239.588,369.374 243.588,368.374 248.5,371C 252.548,374.716 256.882,378.05 261.5,381C 265.475,381.987 269.141,381.487 272.5,379.5C 275.941,378.903 279.275,378.237 282.5,377.5C 286.992,372.774 291.992,372.274 297.5,376C 299.5,376.667 301.5,376.667 303.5,376C 305.601,373.23 308.268,371.23 311.5,370C 316.351,369.53 321.018,369.863 325.5,371C 328.536,367.304 332.203,364.304 336.5,362C 340.167,361.667 343.833,361.333 347.5,361C 350.28,358.135 353.28,355.468 356.5,353C 360.869,351.579 364.369,349.079 367,345.5C 367.688,333.625 373.855,326.458 385.5,324C 394.327,317.829 397.827,309.329 396,298.5C 398.28,294.553 400.947,290.887 404,287.5C 405.9,283.368 406.733,279.034 406.5,274.5C 406.777,269.767 406.443,265.1 405.5,260.5C 407.655,259.999 409.322,258.999 410.5,257.5C 410.5,256.833 410.5,256.167 410.5,255.5C 411.979,252.936 412.479,250.27 412,247.5C 412.446,251.593 413.279,255.593 414.5,259.5C 415.294,255.215 415.627,251.049 415.5,247C 416.01,245.174 416.844,245.007 418,246.5C 418.569,242.639 419.402,242.639 420.5,246.5C 421.213,244.565 422.213,244.232 423.5,245.5 Z"/></g>
<g><path style="opacity:1" fill="#e7ebee" d="M 412.5,266.5 C 415.46,268.854 416.793,272.02 416.5,276C 417.283,279.594 415.95,281.427 412.5,281.5C 412.5,276.5 412.5,271.5 412.5,266.5 Z"/></g>
<g><path style="opacity:1" fill="#1c2645" d="M 395.5,270.5 C 397.288,270.215 398.955,270.548 400.5,271.5C 395.674,276.426 395.341,281.593 399.5,287C 395.911,287.092 393.744,285.259 393,281.5C 391.812,277.259 392.645,273.592 395.5,270.5 Z"/></g>
<g><path style="opacity:1" fill="#7f8596" d="M 364.5,281.5 C 362.097,281.448 359.764,281.781 357.5,282.5C 358.312,281.007 359.645,280.34 361.5,280.5C 362.726,280.52 363.726,280.853 364.5,281.5 Z"/></g>
<g><path style="opacity:1" fill="#343b53" d="M 202.5,280.5 C 206.976,280.822 208.476,283.156 207,287.5C 206.5,284.333 204.667,282.5 201.5,282C 202.056,281.617 202.389,281.117 202.5,280.5 Z"/></g>
<g><path style="opacity:1" fill="#1c2646" d="M 364.5,281.5 C 362.673,283.01 360.507,285.01 358,287.5C 356.154,290.569 355.154,293.902 355,297.5C 351.095,291.595 351.928,286.595 357.5,282.5C 359.764,281.781 362.097,281.448 364.5,281.5 Z"/></g>
<g><path style="opacity:1" fill="#232b4b" d="M 378.5,274.5 C 380.288,274.215 381.955,274.548 383.5,275.5C 378.111,279.904 377.111,285.238 380.5,291.5C 378.671,292.282 377.171,291.616 376,289.5C 372.253,283.734 373.087,278.734 378.5,274.5 Z"/></g>
<g><path style="opacity:1" fill="#142043" d="M 107.5,278.5 C 117.337,280.682 124.504,286.349 129,295.5C 134.144,286.012 141.977,282.012 152.5,283.5C 154.076,297.781 147.742,306.614 133.5,310C 116.804,312.5 107.137,305.5 104.5,289C 104.597,285.212 105.597,281.712 107.5,278.5 Z"/></g>
<g><path style="opacity:1" fill="#4b5064" d="M 190.5,284.5 C 194.475,285.097 195.975,287.43 195,291.5C 194.333,290.167 193.667,288.833 193,287.5C 192.333,286.167 191.667,286.167 191,287.5C 190.517,286.552 190.351,285.552 190.5,284.5 Z"/></g>
<g><path style="opacity:1" fill="#142042" d="M 498.5,278.5 C 503.189,277.684 505.689,279.684 506,284.5C 507.345,297.479 501.845,305.979 489.5,310C 476.316,312.155 466.15,307.655 459,296.5C 457.266,291.871 457.099,287.205 458.5,282.5C 468.993,281.997 476.827,286.331 482,295.5C 485.689,287.979 491.189,282.312 498.5,278.5 Z"/></g>
<g><path style="opacity:1" fill="#eef0f1" d="M 111.5,286.5 C 118.609,289.858 123.275,295.358 125.5,303C 121.893,303.797 118.726,302.964 116,300.5C 112.49,296.48 110.99,291.814 111.5,286.5 Z"/></g>
<g><path style="opacity:1" fill="#272f4c" d="M 333.5,297.5 C 332.833,299.167 332.167,300.833 331.5,302.5C 329.073,290.428 333.74,286.261 345.5,290C 339.513,289.511 335.513,292.011 333.5,297.5 Z"/></g>
<g><path style="opacity:1" fill="#363e50" d="M 237.5,293.5 C 241.596,293.363 244.929,294.863 247.5,298C 244.096,296.652 240.429,295.652 236.5,295C 237.056,294.617 237.389,294.117 237.5,293.5 Z"/></g>
<g><path style="opacity:1" fill="#f2f4f6" d="M 404.5,294.5 C 408.004,294.792 409.671,296.792 409.5,300.5C 409.668,305.056 407.668,308.056 403.5,309.5C 402.558,309.392 401.725,309.059 401,308.5C 399.743,303.18 400.91,298.513 404.5,294.5 Z"/></g>
<g><path style="opacity:1" fill="#e8e9ef" d="M 463.5,288.5 C 470.658,290.779 475.658,295.446 478.5,302.5C 478,302.833 477.5,303.167 477,303.5C 469.259,301.314 464.759,296.314 463.5,288.5 Z"/></g>
<g><path style="opacity:1" fill="#8e95a0" d="M 322.5,296.5 C 323.289,296.783 323.956,297.283 324.5,298C 322.19,298.497 319.857,298.663 317.5,298.5C 319.167,297.833 320.833,297.167 322.5,296.5 Z"/></g>
<g><path style="opacity:1" fill="#202b47" d="M 322.5,296.5 C 320.833,297.167 319.167,297.833 317.5,298.5C 311.682,300.828 308.849,305.162 309,311.5C 305.972,299.696 310.472,294.696 322.5,296.5 Z"/></g>
<g><path style="opacity:1" fill="#444b5f" d="M 218.5,299.5 C 225.12,298.954 228.286,301.954 228,308.5C 226.426,303.254 222.926,300.754 217.5,301C 218.056,300.617 218.389,300.117 218.5,299.5 Z"/></g>
<g><path style="opacity:1" fill="#83889f" d="M 333.5,297.5 C 333.663,299.857 333.497,302.19 333,304.5C 332.283,303.956 331.783,303.289 331.5,302.5C 332.167,300.833 332.833,299.167 333.5,297.5 Z"/></g>
<g><path style="opacity:1" fill="#dedfec" d="M 416.5,293.5 C 417.117,293.611 417.617,293.944 418,294.5C 419.075,298.858 418.408,302.858 416,306.5C 416.291,302.226 416.457,297.893 416.5,293.5 Z"/></g>
<g><path style="opacity:1" fill="#2b324d" d="M 287.5,302.5 C 292.757,301.521 297.09,303.021 300.5,307C 292.418,303.233 286.585,305.4 283,313.5C 282.333,311.833 282.333,310.167 283,308.5C 284.332,306.34 285.832,304.34 287.5,302.5 Z"/></g>
<g><path style="opacity:1" fill="#1a2446" d="M 384.5,308.5 C 383.833,310.833 383.167,313.167 382.5,315.5C 378.37,310.09 378.704,304.924 383.5,300C 391.012,299.245 391.846,300.745 386,304.5C 385.209,305.745 384.709,307.078 384.5,308.5 Z"/></g>
<g><path style="opacity:1" fill="#1c2545" d="M 365.5,304.5 C 368.32,304.248 370.986,304.748 373.5,306C 366.04,308.962 362.373,314.462 362.5,322.5C 359.606,319.03 358.773,315.03 360,310.5C 361.36,307.977 363.193,305.977 365.5,304.5 Z"/></g>
<g><path style="opacity:1" fill="#242945" d="M 209.5,308.5 C 209.5,309.167 209.167,309.5 208.5,309.5C 206.704,308.206 204.704,307.206 202.5,306.5C 205.487,303.819 207.82,304.486 209.5,308.5 Z"/></g>
<g><path style="opacity:1" fill="#343b55" d="M 192.5,308.5 C 196.361,310.217 198.195,313.217 198,317.5C 196.356,314.689 194.19,312.356 191.5,310.5C 191.863,309.817 192.196,309.15 192.5,308.5 Z"/></g>
<g><path style="opacity:1" fill="#6a6c76" d="M 209.5,308.5 C 210.905,310.225 211.405,312.225 211,314.5C 210.153,312.807 209.32,311.14 208.5,309.5C 209.167,309.5 209.5,309.167 209.5,308.5 Z"/></g>
<g><path style="opacity:1" fill="#797988" d="M 384.5,308.5 C 384.813,311.247 384.48,313.914 383.5,316.5C 382.893,316.376 382.56,316.043 382.5,315.5C 383.167,313.167 383.833,310.833 384.5,308.5 Z"/></g>
<g><path style="opacity:1" fill="#515766" d="M 186.5,316.5 C 185.662,316.158 185.328,315.492 185.5,314.5C 186.268,313.737 186.768,312.737 187,311.5C 188.914,314.298 189.914,317.298 190,320.5C 189.333,319.167 188.667,317.833 188,316.5C 187.31,315.262 186.81,315.262 186.5,316.5 Z"/></g>
<g><path style="opacity:1" fill="#2c314b" d="M 265.5,310.5 C 272.11,309.011 276.277,311.344 278,317.5C 270.939,311.398 265.272,312.398 261,320.5C 260.333,318.833 260.333,317.167 261,315.5C 262.707,313.963 264.207,312.296 265.5,310.5 Z"/></g>
<g><path style="opacity:1" fill="#192442" d="M 343.5,312.5 C 346.978,312.184 350.312,312.684 353.5,314C 345.991,315.509 341.491,320.009 340,327.5C 338.443,324.706 338.11,321.706 339,318.5C 339.639,315.788 341.139,313.788 343.5,312.5 Z"/></g>
<g><path style="opacity:1" fill="#272f4a" d="M 244.5,317.5 C 249.194,316.7 252.694,318.367 255,322.5C 255.667,323.167 255.667,323.833 255,324.5C 250.174,319.381 245.507,319.381 241,324.5C 240.744,321.424 241.911,319.091 244.5,317.5 Z"/></g>
<g><path style="opacity:1" fill="#142041" d="M 149.5,315.5 C 153.578,315.26 155.744,317.26 156,321.5C 156.626,335.564 150.126,344.73 136.5,349C 115.643,351.643 105.976,342.476 107.5,321.5C 117.851,321.593 126.351,325.593 133,333.5C 136.298,325.373 141.798,319.373 149.5,315.5 Z"/></g>
<g><path style="opacity:1" fill="#1b2642" d="M 330.5,321.5 C 328.5,322.167 326.5,322.833 324.5,323.5C 320.221,324.612 317.387,327.279 316,331.5C 315.332,320.409 320.166,317.075 330.5,321.5 Z"/></g>
<g><path style="opacity:1" fill="#9a9cb3" d="M 330.5,321.5 C 331.043,321.56 331.376,321.893 331.5,322.5C 329.257,323.474 326.924,323.808 324.5,323.5C 326.5,322.833 328.5,322.167 330.5,321.5 Z"/></g>
<g><path style="opacity:1" fill="#2a314e" d="M 225.5,323.5 C 231.984,323.157 235.484,326.157 236,332.5C 234.169,329.161 231.335,327.161 227.5,326.5C 225.399,326.632 223.899,327.632 223,329.5C 222.458,326.918 223.292,324.918 225.5,323.5 Z"/></g>
<g><path style="opacity:1" fill="#7d89a1" d="M 400.5,325.5 C 400.56,324.957 400.893,324.624 401.5,324.5C 402.797,326.973 402.797,329.307 401.5,331.5C 401.795,329.265 401.461,327.265 400.5,325.5 Z"/></g>
<g><path style="opacity:1" fill="#121f41" d="M 456.5,316.5 C 463.752,316.552 469.585,319.552 474,325.5C 475.595,328.121 477.095,330.787 478.5,333.5C 484.905,325.464 493.238,321.464 503.5,321.5C 505.335,334.681 500.335,343.848 488.5,349C 474.985,351.492 464.485,346.992 457,335.5C 453.92,329.215 453.753,322.882 456.5,316.5 Z"/></g>
<g><path style="opacity:1" fill="#edeff2" d="M 460.5,323.5 C 468.604,326.695 472.437,332.695 472,341.5C 464.871,337.57 461.038,331.57 460.5,323.5 Z"/></g>
<g><path style="opacity:1" fill="#252d4a" d="M 295.5,326.5 C 302.803,325.049 307.303,327.715 309,334.5C 302.309,328.576 296.476,329.243 291.5,336.5C 290.386,335.277 290.219,333.944 291,332.5C 292.332,330.34 293.832,328.34 295.5,326.5 Z"/></g>
<g><path style="opacity:1" fill="#ebedf0" d="M 113.5,328.5 C 121.329,330.755 127.329,335.422 131.5,342.5C 120.592,344.267 114.592,339.601 113.5,328.5 Z"/></g>
<g><path style="opacity:1" fill="#29334c" d="M 210.5,328.5 C 216.409,329.241 219.242,332.574 219,338.5C 216.924,333.052 213.257,331.385 208,333.5C 207.294,331.045 208.127,329.378 210.5,328.5 Z"/></g>
<g><path style="opacity:1" fill="#252f4a" d="M 198.5,331.5 C 203.115,333.278 205.615,336.611 206,341.5C 204.395,337.724 201.562,335.724 197.5,335.5C 197.433,334.041 197.766,332.708 198.5,331.5 Z"/></g>
<g><path style="opacity:1" fill="#edeef1" d="M 379.5,332.5 C 381.5,332.5 383.5,332.5 385.5,332.5C 386.337,341.495 382.337,345.661 373.5,345C 372.251,342.79 372.418,340.624 374,338.5C 376.04,336.63 377.873,334.63 379.5,332.5 Z"/></g>
<g><path style="opacity:1" fill="#232c48" d="M 273.5,333.5 C 279.766,332.633 284.433,334.967 287.5,340.5C 287.167,340.833 286.833,341.167 286.5,341.5C 282.005,337.454 277.005,336.62 271.5,339C 270.299,339.903 269.465,341.069 269,342.5C 268.377,338.412 269.877,335.412 273.5,333.5 Z"/></g>
<g><path style="opacity:1" fill="#1a2644" d="M 353.5,332.5 C 363.709,333.409 364.376,335.243 355.5,338C 352.238,340.592 349.738,343.759 348,347.5C 345.81,345.217 345.143,342.551 346,339.5C 347.742,336.254 350.242,333.921 353.5,332.5 Z"/></g>
<g><path style="opacity:1" fill="#d5d8e2" d="M 400.5,325.5 C 401.461,327.265 401.795,329.265 401.5,331.5C 399.812,336.563 396.478,338.563 391.5,337.5C 396.824,335.184 399.824,331.184 400.5,325.5 Z"/></g>
<g><path style="opacity:1" fill="#272e4d" d="M 253.5,339.5 C 260.435,338.963 264.601,341.963 266,348.5C 260.392,342.6 254.725,342.267 249,347.5C 249.181,344.142 250.681,341.475 253.5,339.5 Z"/></g>
<g><path style="opacity:1" fill="#2a314e" d="M 329.5,341.5 C 333.901,340.87 337.568,342.203 340.5,345.5C 333.655,345.326 328.322,347.993 324.5,353.5C 323.353,351.235 323.186,348.902 324,346.5C 325.73,344.598 327.563,342.931 329.5,341.5 Z"/></g>
<g><path style="opacity:1" fill="#282f4d" d="M 233.5,345.5 C 241.594,345.774 246.427,349.774 248,357.5C 244.459,352.148 239.625,349.648 233.5,350C 233,350.5 232.5,351 232,351.5C 231.252,349.16 231.752,347.16 233.5,345.5 Z"/></g>
<g><path style="opacity:1" fill="#1c2546" d="M 303.5,348.5 C 310.187,347.376 314.854,349.876 317.5,356C 317.167,356.5 316.833,357 316.5,357.5C 310.754,352.299 305.087,352.299 299.5,357.5C 298.386,356.277 298.219,354.944 299,353.5C 300.366,351.638 301.866,349.972 303.5,348.5 Z"/></g>
<g><path style="opacity:1" fill="#222949" d="M 220.5,350.5 C 227.153,351.322 230.987,354.988 232,361.5C 228.635,357.613 224.468,355.28 219.5,354.5C 219.433,353.041 219.766,351.708 220.5,350.5 Z"/></g>
<g><path style="opacity:1" fill="#202948" d="M 279.5,354.5 C 285.979,354.071 290.646,356.738 293.5,362.5C 293.167,362.833 292.833,363.167 292.5,363.5C 288.608,360.674 284.275,359.841 279.5,361C 277.448,361.93 275.948,363.43 275,365.5C 273.776,360.626 275.276,356.959 279.5,354.5 Z"/></g>
<g><path style="opacity:1" fill="#d9dfe4" d="M 388.5,348.5 C 390.061,352.341 389.561,356.008 387,359.5C 384.687,361.037 382.187,361.537 379.5,361C 385.328,358.835 388.328,354.668 388.5,348.5 Z"/></g>
<g><path style="opacity:1" fill="#f0f2f4" d="M 363.5,356.5 C 365.167,356.5 366.833,356.5 368.5,356.5C 369.285,363.377 366.285,367.377 359.5,368.5C 356.025,367.857 354.859,365.857 356,362.5C 358.114,359.879 360.614,357.879 363.5,356.5 Z"/></g>
<g><path style="opacity:1" fill="#d5dbe5" d="M 208.5,359.5 C 210.939,361.534 213.272,363.701 215.5,366C 217.134,366.494 218.801,366.66 220.5,366.5C 220.5,367.5 220.5,368.5 220.5,369.5C 214.438,368.781 210.438,365.447 208.5,359.5 Z"/></g>
<g><path style="opacity:1" fill="#232c49" d="M 258.5,363.5 C 266.74,363.584 271.24,367.584 272,375.5C 268.984,370.242 264.484,368.075 258.5,369C 255.664,372.044 254.831,371.211 256,366.5C 256.698,365.309 257.531,364.309 258.5,363.5 Z"/></g>
<g><path style="opacity:1" fill="#142042" d="M 448.5,348.5 C 459.251,351.767 465.085,359.1 466,370.5C 473.753,363.918 482.586,361.585 492.5,363.5C 493.45,375.064 488.45,382.897 477.5,387C 459.756,389.374 448.59,381.874 444,364.5C 443.333,361.833 443.333,359.167 444,356.5C 445.328,353.688 446.828,351.022 448.5,348.5 Z"/></g>
<g><path style="opacity:1" fill="#f1f2f5" d="M 458.5,367.5 C 458.806,370.385 458.473,373.052 457.5,375.5C 451.837,370.521 449.503,364.187 450.5,356.5C 455.405,358.422 458.071,362.089 458.5,367.5 Z"/></g>
<g><path style="opacity:1" fill="#eceef1" d="M 340.5,367.5 C 347.118,366.275 348.951,368.608 346,374.5C 342.504,378.215 338.337,379.215 333.5,377.5C 331.876,376.131 331.376,374.464 332,372.5C 334.682,370.415 337.516,368.748 340.5,367.5 Z"/></g>
<g><path style="opacity:1" fill="#9099a9" d="M 458.5,367.5 C 459.803,370.355 459.803,373.355 458.5,376.5C 457.893,376.376 457.56,376.043 457.5,375.5C 458.473,373.052 458.806,370.385 458.5,367.5 Z"/></g>
<g><path style="opacity:1" fill="#5f6779" d="M 282.5,377.5 C 279.275,378.237 275.941,378.903 272.5,379.5C 275.337,377.598 278.671,376.931 282.5,377.5 Z"/></g>
<g><path style="opacity:1" fill="#eceef1" d="M 313.5,375.5 C 316.881,375.46 320.214,375.793 323.5,376.5C 322.469,385.186 317.802,388.019 309.5,385C 308.101,383.938 307.101,382.605 306.5,381C 308.444,378.692 310.777,376.859 313.5,375.5 Z"/></g>
<g><path style="opacity:1" fill="#e9ecef" d="M 239.5,376.5 C 244.192,376.841 248.526,378.341 252.5,381C 253.517,382.049 253.684,383.216 253,384.5C 248.853,385.708 245.02,384.874 241.5,382C 240.139,380.416 239.472,378.582 239.5,376.5 Z"/></g>
<g><path style="opacity:1" fill="#142142" d="M 158.5,348.5 C 160.144,348.286 161.644,348.62 163,349.5C 168.932,357.765 168.932,366.098 163,374.5C 155.673,385.409 145.506,389.575 132.5,387C 122.018,382.525 117.352,374.692 118.5,363.5C 128.26,362.149 137.093,364.482 145,370.5C 146.196,361.102 150.696,353.768 158.5,348.5 Z"/></g>
<g><path style="opacity:1" fill="#f1f1f4" d="M 124.5,368.5 C 133.093,369.963 140.426,373.796 146.5,380C 135.093,383.731 127.76,379.898 124.5,368.5 Z"/></g>
<g><path style="opacity:1" fill="#e9ebef" d="M 285.5,382.5 C 289.182,382.335 292.848,382.501 296.5,383C 301.689,384.694 301.689,386.694 296.5,389C 291.976,389.925 287.809,389.092 284,386.5C 283.516,384.807 284.016,383.473 285.5,382.5 Z"/></g>
<g><path style="opacity:1" fill="#dadee7" d="M 228.5,379.5 C 232.092,383.131 236.425,385.464 241.5,386.5C 234.656,388.581 230.323,386.248 228.5,379.5 Z"/></g>
<g><path style="opacity:1" fill="#d2d9e4" d="M 348.5,386.5 C 349.791,387.542 349.791,388.708 348.5,390C 345.783,392.076 342.783,392.743 339.5,392C 342.672,390.303 345.672,388.47 348.5,386.5 Z"/></g>
<g><path style="opacity:1" fill="#142042" d="M 174.5,378.5 C 180.52,379.688 184.02,383.355 185,389.5C 186.087,408.375 177.42,419.375 159,422.5C 145.892,422.055 138.559,415.388 137,402.5C 140.315,400.285 143.982,399.285 148,399.5C 153.974,400.285 159.807,401.619 165.5,403.5C 163.962,393.442 166.962,385.109 174.5,378.5 Z"/></g>
<g><path style="opacity:1" fill="#eff0f4" d="M 263.5,388.5 C 268.59,390.605 273.924,391.772 279.5,392C 280.791,394.09 280.124,395.424 277.5,396C 272.331,397.295 267.831,396.128 264,392.5C 263.51,391.207 263.343,389.873 263.5,388.5 Z"/></g>
<g><path style="opacity:1" fill="#e4e9ee" d="M 326.5,393.5 C 327.376,393.369 328.043,393.702 328.5,394.5C 327.636,396.197 326.303,397.363 324.5,398C 321.167,398.667 317.833,398.667 314.5,398C 313.692,397.692 313.025,397.192 312.5,396.5C 316.459,395.673 320.459,395.173 324.5,395C 325.416,394.722 326.082,394.222 326.5,393.5 Z"/></g>
<g><path style="opacity:1" fill="#cdd5df" d="M 247.5,395.5 C 247.56,394.957 247.893,394.624 248.5,394.5C 252.545,396.717 256.878,398.05 261.5,398.5C 259.133,400.395 256.466,400.895 253.5,400C 251.34,398.668 249.34,397.168 247.5,395.5 Z"/></g>
<g><path style="opacity:1" fill="#687690" d="M 293.5,398.5 C 296.898,398.18 300.232,398.513 303.5,399.5C 303.145,400.522 302.478,401.189 301.5,401.5C 299.143,399.902 296.477,398.902 293.5,398.5 Z"/></g>
<g><path style="opacity:1" fill="#ebedf2" d="M 293.5,398.5 C 296.477,398.902 299.143,399.902 301.5,401.5C 297.456,402.042 293.789,401.209 290.5,399C 291.448,398.517 292.448,398.351 293.5,398.5 Z"/></g>
<g><path style="opacity:1" fill="#142042" d="M 433.5,378.5 C 435.308,378.491 436.975,378.991 438.5,380C 444.242,386.726 446.909,394.56 446.5,403.5C 455.553,398.646 464.719,398.313 474,402.5C 473.047,411.234 468.547,417.401 460.5,421C 439.68,424.204 428.013,415.204 425.5,394C 425.163,387.171 427.83,382.004 433.5,378.5 Z"/></g>
<g><path style="opacity:1" fill="#e8eaed" d="M 433.5,386.5 C 435.017,386.511 436.184,387.177 437,388.5C 440.279,394.898 440.279,401.231 437,407.5C 431.242,401.24 430.075,394.24 433.5,386.5 Z"/></g>
<g><path style="opacity:1" fill="#f0f1f3" d="M 144.5,406.5 C 153.203,406.124 161.203,408.291 168.5,413C 158.041,419.211 150.041,417.045 144.5,406.5 Z"/></g>
<g><path style="opacity:1" fill="#152042" d="M 195.5,404.5 C 205.749,406.261 210.749,412.428 210.5,423C 209.677,443.061 199.343,452.728 179.5,452C 172.472,450.078 167.306,445.911 164,439.5C 163.797,436.339 165.297,434.172 168.5,433C 170.788,432.178 173.122,431.511 175.5,431C 181.241,430.792 186.907,430.626 192.5,430.5C 189.156,421.285 190.156,412.618 195.5,404.5 Z"/></g>
<g><path style="opacity:1" fill="#131f42" d="M 222.5,424.5 C 231.341,424.847 237.174,429.18 240,437.5C 243.189,450.246 240.355,461.413 231.5,471C 220.626,477.401 210.126,476.901 200,469.5C 199.15,467.99 198.317,466.49 197.5,465C 201.683,458.506 207.683,454.839 215.5,454C 218.146,453.503 220.813,453.336 223.5,453.5C 221.348,448.041 220.015,442.374 219.5,436.5C 219.331,432.183 220.331,428.183 222.5,424.5 Z"/></g>
<g><path style="opacity:1" fill="#131f42" d="M 267.5,426.5 C 292.826,431.795 318.16,431.795 343.5,426.5C 343.727,431.544 343.394,436.544 342.5,441.5C 332.402,449.661 325.235,459.994 321,472.5C 314.96,495.761 312.127,519.428 312.5,543.5C 310.167,545.5 307.833,547.5 305.5,549.5C 303.167,547.5 300.833,545.5 298.5,543.5C 298.788,520.832 296.288,498.499 291,476.5C 287.64,462.496 280.306,451.163 269,442.5C 267.661,437.264 267.161,431.93 267.5,426.5 Z"/></g>
<g><path style="opacity:1" fill="#142042" d="M 410.5,404.5 C 415.664,405.158 418.831,408.158 420,413.5C 420.641,419.528 420.474,425.528 419.5,431.5C 429.42,429.275 438.587,430.941 447,436.5C 445.323,443.283 441.156,448.117 434.5,451C 418.08,454.869 407.247,448.702 402,432.5C 398.069,420.848 400.902,411.514 410.5,404.5 Z"/></g>
<g><path style="opacity:1" fill="#ebedf0" d="M 410.5,411.5 C 411.496,411.414 412.329,411.748 413,412.5C 415.424,420.248 414.424,427.581 410,434.5C 405.252,426.679 405.418,419.013 410.5,411.5 Z"/></g>
<g><path style="opacity:1" fill="#e6e8ec" d="M 295.5,435.5 C 301.5,436.167 307.5,436.833 313.5,437.5C 300.646,439.923 287.646,440.923 274.5,440.5C 273.908,437.873 273.575,435.206 273.5,432.5C 280.722,434.246 288.055,435.246 295.5,435.5 Z"/></g>
<g><path style="opacity:1" fill="#bcbfca" d="M 295.5,435.5 C 303.507,435.334 311.507,435.5 319.5,436C 317.655,437.128 315.655,437.628 313.5,437.5C 307.5,436.833 301.5,436.167 295.5,435.5 Z"/></g>
<g><path style="opacity:1" fill="#eef0f3" d="M 175.5,437.5 C 180.844,437.334 186.177,437.501 191.5,438C 193.631,438.543 195.631,439.376 197.5,440.5C 188.477,448.772 179.81,448.438 171.5,439.5C 172.949,438.828 174.282,438.161 175.5,437.5 Z"/></g>
<g><path style="opacity:1" fill="#f5f6f8" d="M 303.5,455.5 C 303.83,473.008 303.497,490.341 302.5,507.5C 301.925,488.703 297.925,470.703 290.5,453.5C 295.294,452.903 299.627,453.57 303.5,455.5 Z"/></g>
<g><path style="opacity:1" fill="#121f41" d="M 382.5,424.5 C 387.803,423.736 390.636,426.07 391,431.5C 392.405,439.283 390.905,446.449 386.5,453C 396.774,453.06 405.608,456.56 413,463.5C 411.75,468.432 408.583,471.932 403.5,474C 385.014,478.336 373.848,471.17 370,452.5C 367.985,440.211 372.151,430.877 382.5,424.5 Z"/></g>
<g><path style="opacity:1" fill="#eaecef" d="M 382.5,431.5 C 383.496,431.414 384.329,431.748 385,432.5C 385.899,441.136 383.233,448.469 377,454.5C 374,445.669 375.833,438.002 382.5,431.5 Z"/></g>
<g><path style="opacity:1" fill="#eff1f3" d="M 215.5,459.5 C 220.833,459.5 226.167,459.5 231.5,459.5C 231.256,462.263 229.923,464.429 227.5,466C 219.979,470.788 212.645,470.622 205.5,465.5C 208.562,462.972 211.896,460.972 215.5,459.5 Z"/></g>
<g><path style="opacity:1" fill="#4d5c76" d="M 303.5,455.5 C 304.663,476.663 304.829,497.996 304,519.5C 302.646,515.637 302.146,511.637 302.5,507.5C 303.497,490.341 303.83,473.008 303.5,455.5 Z"/></g>
</svg>
